<svg width="70" height="70" viewBox="0 0 70 70" fill="none" xmlns="http://www.w3.org/2000/svg">
<circle cx="35" cy="35" r="34.5" stroke="#D7D7D7"/>
<path d="M35 25C32.8783 25 30.8434 25.8429 29.3431 27.3431C27.8429 28.8434 27 30.8783 27 33C27 38.4 34.05 44.5 34.35 44.76C34.5311 44.9149 34.7616 45.0001 35 45.0001C35.2384 45.0001 35.4689 44.9149 35.65 44.76C36 44.5 43 38.4 43 33C43 30.8783 42.1571 28.8434 40.6569 27.3431C39.1566 25.8429 37.1217 25 35 25ZM35 42.65C32.87 40.65 29 36.34 29 33C29 31.4087 29.6321 29.8826 30.7574 28.7574C31.8826 27.6321 33.4087 27 35 27C36.5913 27 38.1174 27.6321 39.2426 28.7574C40.3679 29.8826 41 31.4087 41 33C41 36.34 37.13 40.66 35 42.65ZM35 29C34.2089 29 33.4355 29.2346 32.7777 29.6741C32.1199 30.1136 31.6072 30.7384 31.3045 31.4693C31.0017 32.2002 30.9225 33.0044 31.0769 33.7804C31.2312 34.5563 31.6122 35.269 32.1716 35.8284C32.731 36.3878 33.4437 36.7688 34.2196 36.9231C34.9956 37.0775 35.7998 36.9983 36.5307 36.6955C37.2616 36.3928 37.8864 35.8801 38.3259 35.2223C38.7654 34.5645 39 33.7911 39 33C39 31.9391 38.5786 30.9217 37.8284 30.1716C37.0783 29.4214 36.0609 29 35 29ZM35 35C34.6044 35 34.2178 34.8827 33.8889 34.6629C33.56 34.4432 33.3036 34.1308 33.1522 33.7654C33.0009 33.3999 32.9613 32.9978 33.0384 32.6098C33.1156 32.2219 33.3061 31.8655 33.5858 31.5858C33.8655 31.3061 34.2219 31.1156 34.6098 31.0384C34.9978 30.9613 35.3999 31.0009 35.7654 31.1522C36.1308 31.3036 36.4432 31.56 36.6629 31.8889C36.8827 32.2178 37 32.6044 37 33C37 33.5304 36.7893 34.0391 36.4142 34.4142C36.0391 34.7893 35.5304 35 35 35Z" fill="#2E3192"/>
</svg>
