<svg width="70" height="70" viewBox="0 0 70 70" fill="none" xmlns="http://www.w3.org/2000/svg">
<circle cx="35" cy="35" r="34.5" stroke="#D7D7D7"/>
<path d="M42.4582 35.9603C42.2382 35.9603 42.0082 35.8903 41.7882 35.8403C41.3427 35.7421 40.9048 35.6118 40.4782 35.4503C40.0143 35.2815 39.5043 35.2903 39.0465 35.4749C38.5886 35.6595 38.2153 36.007 37.9982 36.4503L37.7782 36.9003C36.8042 36.3585 35.9092 35.6855 35.1182 34.9003C34.3329 34.1093 33.66 33.2143 33.1182 32.2403L33.5382 31.9603C33.9815 31.7432 34.3289 31.3698 34.5136 30.912C34.6982 30.4542 34.7069 29.9442 34.5382 29.4803C34.3794 29.0527 34.2491 28.6151 34.1482 28.1703C34.0982 27.9503 34.0582 27.7203 34.0282 27.4903C33.9067 26.7859 33.5378 26.1481 32.9878 25.6916C32.4378 25.2351 31.7429 24.9899 31.0282 25.0003H28.0282C27.5972 24.9963 27.1704 25.0851 26.7769 25.2608C26.3833 25.4366 26.0323 25.695 25.7476 26.0186C25.4629 26.3422 25.2513 26.7233 25.1272 27.136C25.003 27.5488 24.9692 27.9834 25.0282 28.4103C25.5609 32.5997 27.4742 36.4922 30.4658 39.473C33.4574 42.4537 37.3569 44.3528 41.5482 44.8703H41.9282C42.6656 44.8714 43.3776 44.6008 43.9282 44.1103C44.2445 43.8274 44.4973 43.4805 44.6696 43.0926C44.842 42.7048 44.9301 42.2848 44.9282 41.8603V38.8603C44.9159 38.1657 44.663 37.4969 44.2125 36.968C43.762 36.4391 43.142 36.0829 42.4582 35.9603ZM42.9582 41.9603C42.958 42.1023 42.9276 42.2426 42.8689 42.3719C42.8103 42.5013 42.7248 42.6166 42.6182 42.7103C42.5064 42.8068 42.3758 42.8789 42.2346 42.9219C42.0934 42.965 41.9447 42.978 41.7982 42.9603C38.0531 42.4801 34.5744 40.7668 31.9109 38.0906C29.2474 35.4144 27.5506 31.9277 27.0882 28.1803C27.0723 28.0338 27.0862 27.8856 27.1292 27.7447C27.1721 27.6038 27.2432 27.473 27.3382 27.3603C27.4319 27.2536 27.5472 27.1682 27.6765 27.1095C27.8059 27.0509 27.9462 27.0205 28.0882 27.0203H31.0882C31.3207 27.0151 31.5478 27.0912 31.7303 27.2354C31.9128 27.3796 32.0394 27.5829 32.0882 27.8103C32.1282 28.0837 32.1782 28.3537 32.2382 28.6203C32.3537 29.1475 32.5074 29.6655 32.6982 30.1703L31.2982 30.8203C31.1785 30.8752 31.0708 30.9533 30.9813 31.0499C30.8919 31.1466 30.8224 31.2599 30.7768 31.3835C30.7313 31.5071 30.7106 31.6384 30.716 31.77C30.7214 31.9016 30.7527 32.0309 30.8082 32.1503C32.2474 35.2331 34.7254 37.7111 37.8082 39.1503C38.0516 39.2503 38.3247 39.2503 38.5682 39.1503C38.6929 39.1057 38.8075 39.0368 38.9053 38.9475C39.0032 38.8582 39.0823 38.7504 39.1382 38.6303L39.7582 37.2303C40.2751 37.4152 40.8028 37.5688 41.3382 37.6903C41.6048 37.7503 41.8748 37.8003 42.1482 37.8403C42.3756 37.8891 42.5789 38.0157 42.7231 38.1982C42.8673 38.3807 42.9433 38.6078 42.9382 38.8403L42.9582 41.9603Z" fill="#0F5829"/>
</svg>
