<svg width="70" height="70" viewBox="0 0 70 70" fill="none" xmlns="http://www.w3.org/2000/svg">
<circle cx="35" cy="35" r="34.5" stroke="#D7D7D7"/>
<path d="M48.9419 25.5955C48.9181 25.5327 48.8879 25.4723 48.8519 25.4155C48.8376 25.3778 48.8209 25.3411 48.8019 25.3055C48.7088 25.2131 48.6047 25.1325 48.4919 25.0655L48.3219 25.0055H21.9419C21.8721 24.9982 21.8017 24.9982 21.7319 25.0055L21.5619 25.0655C21.509 25.0943 21.4588 25.1277 21.4119 25.1655C21.3577 25.2038 21.3075 25.2473 21.2619 25.2955C21.2429 25.3311 21.2262 25.3678 21.2119 25.4055C21.1062 25.5128 21.0333 25.6482 21.0019 25.7955C20.9994 25.8355 20.9994 25.8756 21.0019 25.9155V43.9155C21.0019 44.1807 21.1073 44.4351 21.2948 44.6226C21.4824 44.8102 21.7367 44.9155 22.0019 44.9155H48.0019C48.2672 44.9155 48.5215 44.8102 48.709 44.6226C48.8966 44.4351 49.0019 44.1807 49.0019 43.9155V25.9155C49.0045 25.8756 49.0045 25.8355 49.0019 25.7955C48.989 25.7269 48.9689 25.6599 48.9419 25.5955ZM45.0619 26.9155L35.0019 34.6555L24.9419 26.9155H45.0619ZM47.0019 42.9155H23.0019V27.9155L34.3919 36.6755C34.5668 36.8101 34.7813 36.8831 35.0019 36.8831C35.2226 36.8831 35.4371 36.8101 35.6119 36.6755L47.0019 27.9155V42.9155Z" fill="#005AAB"/>
</svg>
